# xmcd
#
# Track frame offsets: 
#        150
#        15754
#        29742
#        41444
#        53225
#        65598
#        81825
#        95845
#        110442
#        120668
#        134189
#        147712
#
# Disc length: 2146 seconds
#
# Revision: 0
# Processed by: cddbd v1.5.2PL0 Copyright (c) Steve Scherf et al.
# Submitted via: ExactAudioCopy v0.99pb5
#
DISCID=b108600c
DTITLE=Various Artist - Best of Country Hits Vol. 1
DYEAR=2010
DGENRE=Country
TTITLE0=Kenny Rogers - Through The Years
TTITLE1=Lynn Anderson - Rose Garden
TTITLE2=Johnny Paycheck - Take This Job And Shove It
TTITLE3=Patsy Cline - Walking After Midnight
TTITLE4=Skeeter Davis - End Of The World
TTITLE5=Tommy Overstreet - I Wouldn't Have Missed It For The World
TTITLE6=Melba Montgomery - Help Me Make It Through The Night
TTITLE7=Tommy Overstrreet - Burgers And Fries
TTITLE8=Bill Phillips - Don't Let Me Cross Over
TTITLE9=Nat Stuckey - Good Hearted Woman
TTITLE10=Jerry Wallace - Funny How Time Slips Away
TTITLE11=Wilma Burgess - Satin Sheets
EXTD=
EXTT0=
EXTT1=
EXTT2=
EXTT3=
EXTT4=
EXTT5=
EXTT6=
EXTT7=
EXTT8=
EXTT9=
EXTT10=
EXTT11=
PLAYORDER=
